<svg xmlns="http://www.w3.org/2000/svg" width="110" height="128" fill="none"><path fill="url(#a)" d="M43 30a8 8 0 1 1 17 0 30 30 0 0 1 17 26v13a17 17 0 0 0 8 12H17a17 17 0 0 0 9-12V56a30 30 0 0 1 17-26Z"/><path fill="url(#b)" d="M38 86v2a13 13 0 0 0 26 0v-5"/><g filter="url(#c)"><circle cx="50.5" cy="55.5" r="22.5" fill="url(#d)"/></g><path fill="url(#e)" fill-rule="evenodd" d="M16 4a2 2 0 0 0-4 0c0 4-3 8-7 8a2 2 0 1 0 0 3c4 0 7 3 7 7a2 2 0 1 0 4 0c0-4 3-7 7-7a2 2 0 1 0 0-3c-4 0-7-4-7-8Z" clip-rule="evenodd"/><path fill="url(#f)" fill-rule="evenodd" d="M16 4a2 2 0 0 0-4 0c0 4-3 8-7 8a2 2 0 1 0 0 3c4 0 7 3 7 7a2 2 0 1 0 4 0c0-4 3-7 7-7a2 2 0 1 0 0-3c-4 0-7-4-7-8Z" clip-rule="evenodd"/><path fill="url(#g)" fill-rule="evenodd" d="M32 110a1 1 0 1 0-2 0c0 3-3 6-6 6a1 1 0 1 0 0 3c3 0 6 2 6 5a1 1 0 0 0 2 0c0-3 3-5 6-5a1 1 0 0 0 0-3c-3 0-6-3-6-6Z" clip-rule="evenodd"/><path fill="url(#h)" fill-rule="evenodd" d="M103 83a1 1 0 1 0-2 0c0 2-2 4-4 4a1 1 0 0 0 0 2c2 0 4 2 4 4a1 1 0 0 0 2 0c0-2 2-4 4-4a1 1 0 1 0 0-2c-2 0-4-2-4-4Z" clip-rule="evenodd"/><defs><linearGradient id="a" x1="51" x2="29.5" y1="21.8" y2="119.8" gradientUnits="userSpaceOnUse"><stop stop-color="#63696A"/><stop offset="1" stop-color="#63696A" stop-opacity="0"/></linearGradient><linearGradient id="b" x1="51" x2="29.5" y1="21.8" y2="119.8" gradientUnits="userSpaceOnUse"><stop stop-color="#63696A"/><stop offset="1" stop-color="#63696A" stop-opacity="0"/></linearGradient><linearGradient id="e" x1="9.5" x2="17.6" y1="5.2" y2="28.6" gradientUnits="userSpaceOnUse"><stop stop-color="#63696A"/><stop offset="1" stop-color="#63696A" stop-opacity="0"/></linearGradient><linearGradient id="f" x1="9.5" x2="17.6" y1="5.2" y2="28.6" gradientUnits="userSpaceOnUse"><stop stop-color="#63696A"/><stop offset="1" stop-color="#63696A" stop-opacity="0"/></linearGradient><linearGradient id="g" x1="27.3" x2="33.8" y1="110.7" y2="129.7" gradientUnits="userSpaceOnUse"><stop stop-color="#63696A"/><stop offset="1" stop-color="#63696A" stop-opacity="0"/></linearGradient><linearGradient id="h" x1="99.1" x2="101.8" y1="83.6" y2="95.5" gradientUnits="userSpaceOnUse"><stop stop-color="#63696A"/><stop offset="1" stop-color="#63696A" stop-opacity="0"/></linearGradient><radialGradient id="d" cx="0" cy="0" r="1" gradientTransform="matrix(-14.61753986 35.38415077 -27.09094711 -11.19153605 50 33)" gradientUnits="userSpaceOnUse"><stop stop-color="#fff"/><stop offset="1" stop-color="#1A1C1E"/></radialGradient><filter id="c" width="87" height="87" x="7" y="12" color-interpolation-filters="sRGB" filterUnits="userSpaceOnUse"><feFlood flood-opacity="0" result="BackgroundImageFix"/><feBlend in="SourceGraphic" in2="BackgroundImageFix" result="shape"/><feGaussianBlur result="effect1_foregroundBlur_3157_2315" stdDeviation="10.5"/></filter></defs></svg>