<svg width="186" height="187" viewBox="0 0 186 187" fill="none" xmlns="http://www.w3.org/2000/svg">
<g filter="url(#filter0_d_628_2790)">
<path fill-rule="evenodd" clip-rule="evenodd" d="M78.2283 72.5421C67.6153 75.3858 61.317 86.2947 64.1608 96.9077L67.5986 109.738C70.3405 119.971 83.4041 122.981 90.3481 114.98C93.8027 111 99.2916 109.453 104.317 111.042L104.852 111.211C115.448 114.563 125.565 104.886 122.689 94.1516L121.822 90.915L119.457 82.091C116.614 71.478 105.705 65.1798 95.0918 68.0235L78.2283 72.5421ZM80.1788 97.0495C82.6602 96.1228 83.9205 93.36 82.9938 90.8786C82.0671 88.3972 79.3042 87.1369 76.8228 88.0636C74.3414 88.9903 73.0811 91.7532 74.0079 94.2346C74.9346 96.7159 77.6974 97.9762 80.1788 97.0495ZM94.0178 97.033C96.1723 96.4557 97.4509 94.241 96.8736 92.0865L89.0713 94.1771C89.6486 96.3317 91.8632 97.6103 94.0178 97.033ZM102.8 78.6639C101.919 78.8999 101.397 79.8052 101.633 80.6859L101.73 81.0484C102.02 82.1292 101.378 83.2403 100.297 83.5299L99.9346 83.627C99.0539 83.863 98.5312 84.7683 98.7672 85.649C99.0032 86.5297 99.9084 87.0524 100.789 86.8164L101.152 86.7192C102.233 86.4296 103.344 87.0711 103.633 88.1519L103.73 88.5144C103.966 89.3951 104.872 89.9177 105.752 89.6817C106.633 89.4458 107.156 88.5405 106.92 87.6598L106.823 87.2973C106.533 86.2164 107.174 85.1055 108.255 84.8159L108.618 84.7188C109.498 84.4828 110.021 83.5775 109.785 82.6968C109.549 81.8161 108.644 81.2934 107.763 81.5294L107.401 81.6265C106.32 81.9161 105.209 81.2747 104.919 80.1939L104.822 79.8313C104.586 78.9506 103.681 78.428 102.8 78.6639Z" fill="url(#paint0_radial_628_2790)"/>
</g>
<path fill-rule="evenodd" clip-rule="evenodd" d="M57.7334 52.1756C57.7334 51.3408 57.0566 50.6641 56.2218 50.6641C55.387 50.6641 54.7103 51.3408 54.7103 52.1756C54.7103 55.5406 51.9818 58.2684 48.6169 58.2684C47.7821 58.2684 47.1053 58.9452 47.1053 59.78C47.1053 60.6148 47.7821 61.2915 48.6169 61.2915C51.9822 61.2915 54.7103 64.0205 54.7103 67.3858C54.7103 68.2206 55.387 68.8973 56.2218 68.8973C57.0566 68.8973 57.7334 68.2206 57.7334 67.3858C57.7334 64.0204 60.4616 61.2915 63.827 61.2915C64.6618 61.2915 65.3386 60.6148 65.3386 59.78C65.3386 58.9452 64.6618 58.2684 63.827 58.2684C60.462 58.2684 57.7334 55.5406 57.7334 52.1756Z" fill="url(#paint1_linear_628_2790)"/>
<path fill-rule="evenodd" clip-rule="evenodd" d="M61.9504 127.861C61.9504 127.344 61.531 126.924 61.0137 126.924C60.4965 126.924 60.0771 127.344 60.0771 127.861C60.0771 129.946 58.387 131.636 56.3022 131.636C55.785 131.636 55.3656 132.055 55.3656 132.573C55.3656 133.09 55.785 133.509 56.3022 133.509C58.387 133.509 60.0771 135.201 60.0771 137.286C60.0771 137.803 60.4965 138.222 61.0137 138.222C61.531 138.222 61.9504 137.803 61.9504 137.286C61.9504 135.2 63.6414 133.509 65.727 133.509C66.2443 133.509 66.6636 133.09 66.6636 132.573C66.6636 132.055 66.2443 131.636 65.727 131.636C63.642 131.636 61.9504 129.946 61.9504 127.861Z" fill="url(#paint2_linear_628_2790)"/>
<path fill-rule="evenodd" clip-rule="evenodd" d="M139.612 107.593C139.612 106.899 139.049 106.336 138.355 106.336C137.661 106.336 137.099 106.899 137.099 107.593C137.099 110.39 134.831 112.657 132.034 112.657C131.34 112.657 130.777 113.22 130.777 113.914C130.777 114.608 131.34 115.17 132.034 115.17C134.831 115.17 137.099 117.439 137.099 120.237C137.099 120.931 137.661 121.493 138.355 121.493C139.049 121.493 139.612 120.931 139.612 120.237C139.612 117.439 141.88 115.17 144.678 115.17C145.372 115.17 145.934 114.608 145.934 113.914C145.934 113.22 145.372 112.657 144.678 112.657C141.881 112.657 139.612 110.39 139.612 107.593Z" fill="url(#paint3_linear_628_2790)"/>
<path fill-rule="evenodd" clip-rule="evenodd" d="M179.492 185.468L147.029 154.782L151.754 149.654L184.217 180.34C185.615 181.662 185.691 183.881 184.386 185.297C183.082 186.713 180.89 186.789 179.492 185.468Z" fill="url(#paint4_linear_628_2790)"/>
<g filter="url(#filter1_d_628_2790)">
<path fill-rule="evenodd" clip-rule="evenodd" d="M94.958 172.273C137.9 172.273 172.711 137.461 172.711 94.5193C172.711 51.5774 137.9 16.7661 94.958 16.7661C52.0161 16.7661 17.2048 51.5774 17.2048 94.5193C17.2048 137.461 52.0161 172.273 94.958 172.273ZM94.958 175.69C139.788 175.69 176.129 139.349 176.129 94.5193C176.129 49.6898 139.788 13.3484 94.958 13.3484C50.1286 13.3484 13.7871 49.6898 13.7871 94.5193C13.7871 139.349 50.1286 175.69 94.958 175.69Z" fill="url(#paint5_linear_628_2790)"/>
</g>
<circle opacity="0.2" cx="95.1602" cy="94.7183" r="78" transform="rotate(-180 95.1602 94.7183)" fill="url(#paint6_linear_628_2790)"/>
<defs>
<filter id="filter0_d_628_2790" x="60.4785" y="67.3408" width="62.707" height="53.2009" filterUnits="userSpaceOnUse" color-interpolation-filters="sRGB">
<feFlood flood-opacity="0" result="BackgroundImageFix"/>
<feColorMatrix in="SourceAlpha" type="matrix" values="0 0 0 0 0 0 0 0 0 0 0 0 0 0 0 0 0 0 127 0" result="hardAlpha"/>
<feOffset dx="-3" dy="1"/>
<feComposite in2="hardAlpha" operator="out"/>
<feColorMatrix type="matrix" values="0 0 0 0 0.105882 0 0 0 0 0.113725 0 0 0 0 0.121569 0 0 0 1 0"/>
<feBlend mode="normal" in2="BackgroundImageFix" result="effect1_dropShadow_628_2790"/>
<feBlend mode="normal" in="SourceGraphic" in2="effect1_dropShadow_628_2790" result="shape"/>
</filter>
<filter id="filter1_d_628_2790" x="10.7871" y="13.3484" width="165.342" height="163.342" filterUnits="userSpaceOnUse" color-interpolation-filters="sRGB">
<feFlood flood-opacity="0" result="BackgroundImageFix"/>
<feColorMatrix in="SourceAlpha" type="matrix" values="0 0 0 0 0 0 0 0 0 0 0 0 0 0 0 0 0 0 127 0" result="hardAlpha"/>
<feOffset dx="-3" dy="1"/>
<feComposite in2="hardAlpha" operator="out"/>
<feColorMatrix type="matrix" values="0 0 0 0 0.105882 0 0 0 0 0.113725 0 0 0 0 0.121569 0 0 0 1 0"/>
<feBlend mode="normal" in2="BackgroundImageFix" result="effect1_dropShadow_628_2790"/>
<feBlend mode="normal" in="SourceGraphic" in2="effect1_dropShadow_628_2790" result="shape"/>
</filter>
<radialGradient id="paint0_radial_628_2790" cx="0" cy="0" r="1" gradientUnits="userSpaceOnUse" gradientTransform="translate(122.916 101.957) rotate(157.521) scale(49.7262 59.2852)">
<stop offset="0.190719" stop-color="#686E70"/>
<stop offset="1" stop-color="#2C3132"/>
</radialGradient>
<linearGradient id="paint1_linear_628_2790" x1="52.1732" y1="52.7674" x2="59.1144" y2="72.9644" gradientUnits="userSpaceOnUse">
<stop stop-color="#63696A"/>
<stop offset="1" stop-color="#63696A" stop-opacity="0"/>
</linearGradient>
<linearGradient id="paint2_linear_628_2790" x1="58.5057" y1="128.227" x2="62.8067" y2="140.742" gradientUnits="userSpaceOnUse">
<stop stop-color="#63696A"/>
<stop offset="1" stop-color="#63696A" stop-opacity="0"/>
</linearGradient>
<linearGradient id="paint3_linear_628_2790" x1="134.99" y1="108.084" x2="138.386" y2="123.171" gradientUnits="userSpaceOnUse">
<stop stop-color="#63696A"/>
<stop offset="1" stop-color="#63696A" stop-opacity="0"/>
</linearGradient>
<linearGradient id="paint4_linear_628_2790" x1="194.405" y1="172.383" x2="146.533" y2="147.461" gradientUnits="userSpaceOnUse">
<stop stop-color="#4D5254"/>
<stop offset="1" stop-color="#1B1D1F"/>
</linearGradient>
<linearGradient id="paint5_linear_628_2790" x1="84.5727" y1="13.3484" x2="48.0266" y2="152.993" gradientUnits="userSpaceOnUse">
<stop stop-color="#394143"/>
<stop offset="0.526753" stop-color="#686E70"/>
<stop offset="1" stop-color="#2C3132"/>
</linearGradient>
<linearGradient id="paint6_linear_628_2790" x1="117.28" y1="22.5392" x2="68.384" y2="147.106" gradientUnits="userSpaceOnUse">
<stop stop-color="white" stop-opacity="0.13"/>
<stop offset="1" stop-color="#D9D9D9" stop-opacity="0"/>
</linearGradient>
</defs>
</svg>
